<svg width="25" height="19" fill="none"  xmlns="http://www.w3.org/2000/svg">
  <path d="M4 18a1 1 0 100-2 1 1 0 000 2zM21 18a1 1 0 100-2 1 1 0 000 2z" stroke-width="2" stroke-linecap="round" stroke-linejoin="round"/>
  <path d="M6.5 13a.5.5 0 100-1 .5.5 0 000 1zM18.5 13a.5.5 0 100-1 .5.5 0 000 1z" fill="#fff"   stroke-width="2" stroke-linecap="round" stroke-linejoin="round"/>
  <path d="M21.7 10.1L24 16H1l2.2-5.9c0-.3.4-.6 1-.8.4-.2 1-.3 1.7-.3H19c.7 0 1.3.1 1.8.3.5.2.8.5 1 .8z" stroke-width="2" stroke-linecap="round" stroke-linejoin="round"/>
  <path d="M18.5 2.3L20 9H5l1.4-6.7c0-.4.3-.7.6-1L8.2 1h8.6c.4 0 .8.1 1 .4.4.2.6.5.7.9z"  stroke-width="2" stroke-linecap="round" stroke-linejoin="round"/>
</svg>
