<svg width="81" height="86" fill="none" xmlns="http://www.w3.org/2000/svg"><path d="M2.5 67l-2-14H3l.8 9.3L5 52.9h2.1l1.2 9.3 1-9.3h2.3L9.6 67H7.3l-1.1-9.2L4.9 67H2.5zm10-4.6v-4.8c0-3.3 1.3-5 4-5 2.8 0 4.2 1.7 4.2 5v4.7c0 .6 0 1-.2 1.6 0 .4-.2.9-.4 1.3l-.8 1.1-1.1.7c-.5.2-1 .3-1.7.3-.6 0-1.1-.1-1.6-.3l-1.2-.7-.7-1a9 9 0 01-.6-2.9zm5.3.6v-6c0-1.4-.4-2.1-1.3-2.1a1 1 0 00-1 .7 3.4 3.4 0 00-.2 1.3V63c0 1.4.4 2 1.2 2 .9 0 1.3-.6 1.3-2zm7.2-4.2h.8c.2 0 .4 0 .6-.2l.3-.6a3.6 3.6 0 000-2.2c0-.3-.1-.4-.3-.6a.7.7 0 00-.5-.2H25v3.8zM22.2 67V53h3l1.9.1 1.4.7c.4.2.7.6 1 1.1l.2 1.7v.8a4.9 4.9 0 01-.4 1.6l-.6.7c-.3.2-.5.4-.9.5L30 67h-3l-1.5-6.5H25V67h-2.8zm8.7 0V53h2.9v12h2.8v2h-5.7zm6.6 0V53h3c.8 0 1.6 0 2.2.2a2.8 2.8 0 012.2 2.2l.2 2v4.7a16 16 0 01-.3 2.4c0 .4-.2.7-.3 1a3 3 0 01-.6.6l-.8.5-1.2.3-1.5.1h-3zm3-2a20.4 20.4 0 001 0l.4-.2.2-.2.1-.4v-8.1c0-.5-.1-.8-.4-1l-1.4-.2V65zm5.9-2.7v-4.7c0-3.3 1.3-5 4-5 .6 0 1.1.1 1.6.3.4.1.8.4 1.1.6l.8 1 .4 1.3.1 1.6v1.2h-2.8v-1.3a11.8 11.8 0 000-1.3 2 2 0 00-.3-.6 1 1 0 00-.3-.4.9.9 0 00-.5-.1c-.9 0-1.3.7-1.3 2V63c0 1.4.4 2 1.3 2l.6-.1.3-.6.2-.8v-2.3h2.8v1.2l-.1 1.5-.4 1.3-.7 1.1a4.2 4.2 0 01-2.7 1c-.6 0-1.2-.1-1.7-.3l-1.1-.7-.8-1-.4-1.4-.1-1.6zm12.1 0H60l-.7-5.3-.8 5.2zM55 67l3-14h2.5l3 14h-2.8l-.5-3h-1.9l-.5 3H55zm12.3-8.2h.8c.2 0 .4 0 .6-.2l.3-.6a3.6 3.6 0 000-2.2l-.2-.6a.7.7 0 00-.5-.2h-1v3.8zM64.5 67V53h3l2 .1c.5.2 1 .4 1.3.7.4.2.7.6 1 1.1l.2 1.7v.8a4.9 4.9 0 01-.4 1.6l-.6.7c-.2.2-.5.4-.9.5l2.2 6.8h-3l-1.5-6.5h-.5V67h-2.8zm8.3-4l2.8-.6a16.2 16.2 0 00.1 1.5l.2.6c0 .2.2.3.3.4.2.2.3.2.5.2.6 0 .9-.3.9-1 0-1-.6-2-1.7-3l-.9-.8a15.9 15.9 0 01-1.3-1.2l-.5-.7a4.8 4.8 0 01-.4-2c0-1.2.3-2 1-2.8a4 4 0 013-1c1 0 1.8.4 2.5 1.1.7.7 1 1.6 1 2.6v.3l-3 .4a6.8 6.8 0 010-.6 3.6 3.6 0 000-1l-.4-.4a.7.7 0 00-.4-.2c-.3 0-.6.2-.7.4-.2.2-.2.5-.2.9v.8l.5.7a6.9 6.9 0 001.1 1 13.5 13.5 0 011.6 1.5l.8 1.1.5 1.3c.2.4.2.9.2 1.4 0 1-.3 1.8-1 2.5-.7.6-1.6.9-2.6.9a4 4 0 01-1.7-.4c-.5-.2-1-.5-1.3-1l-.7-1.3a6 6 0 01-.3-1.6zM30 80v-.4h-1.3v.3c0 1-.2 2-1.2 2s-1.3-1-1.3-2v-3.4c0-1.2.1-2 1.3-2 1.1 0 1.2.8 1.2 2H30c0-2-.6-3.2-2.5-3.2-2 0-2.7 1.4-2.7 3.5v2.8c0 2 .6 3.5 2.7 3.5 2 0 2.5-1.3 2.5-3.2zm4.1 3h3.8v-1h-2.4v-8.6H34V83zm12.7-3.4v-6.2h-1.3v6.2c0 1.2-.2 2.4-1.4 2.4-1.3 0-1.4-1.2-1.4-2.4v-6.2h-1.4v6.2c0 2 .6 3.5 2.8 3.5 2.1 0 2.7-1.4 2.7-3.5zm9.6.7c0-1.5-.6-2.1-1.7-2.5 1-.2 1.6-.8 1.6-2 0-1.7-1.2-2.4-3-2.4h-2V83h2.4c1.7 0 2.7-1 2.7-2.8zm-1.4 0c0 1.2-.5 1.7-1.7 1.7h-.7v-3.5h.7c1.2 0 1.7.5 1.7 1.8zm-1.7-2.8h-.7v-3c1.4 0 2.4 0 2.4 1.3 0 1.1-.5 1.7-1.7 1.7z" fill="#fff"/><path d="M56.1 18.8l-1.3 3.7h-.6a8.9 8.9 0 00-8.7 10.8l-5 1.6-5-1.6a8.9 8.9 0 00-9.3-10.8l-1.3-3.7 1.7-3.5a44 44 0 0127.8 0l1.7 3.5z" fill="#1657E7"/><path d="M56.1 18.8l-1.3 3.7h-.6a8.9 8.9 0 00-8.7 10.8l-5 1.6V13c4.9 0 9.5.8 14 2.2l1.6 3.5z" fill="#4881FF"/><path d="M54.3 5.7a19.4 19.4 0 00-27.6 0c-3.5 3.5-5 8.4-5 13.8s1.5 10.3 5 13.8a19.4 19.4 0 0027.6 0c3.5-3.5 5-8.4 5-13.8s-1.5-10.3-5-13.8zm-3.5 24a14.4 14.4 0 01-20.6 0c-2.6-2.6-5-6.2-5-10.2 0-4 2.4-7.6 5-10.2a14.4 14.4 0 0120.6 0c2.6 2.6 5 6.2 5 10.2 0 4-2.4 7.6-5 10.2z" fill="#4881FF"/><path d="M59.2 19.5c0 5.4-1.4 10.3-5 13.8A19.4 19.4 0 0140.6 39v-5c4 0 7.6-1.6 10.3-4.3 2.6-2.6 5-6.2 5-10.2 0-4-2.4-7.6-5-10.2A14.4 14.4 0 0040.5 5V0c5.4 0 10.3 2.2 13.8 5.7s5 8.4 5 13.8z" fill="#1657E7"/><path d="M60 19.5c0 5.4-2.2 10.3-5.7 13.8l-3.5-3.6a14.4 14.4 0 000-20.4l3.5-3.6c3.5 3.5 5.7 8.4 5.7 13.8zM26 19.5c0 4 1.6 7.6 4.2 10.2l-3.5 3.6a19.4 19.4 0 010-27.6l3.5 3.6A14.4 14.4 0 0026 19.5z" fill="#00FFD9"/><path d="M40.5 23.6a3.2 3.2 0 100-6.5 3.2 3.2 0 000 6.5z" fill="#060041"/><path d="M43.7 20.3c0 1.8-1.4 3.3-3.2 3.3V17c1.8 0 3.2 1.5 3.2 3.2z" fill="#060041"/></svg>