<svg width="22" height="23" viewBox="0 0 22 23" fill="none" xmlns="http://www.w3.org/2000/svg">
<path d="M16.1251 2.73633C16.3877 2.47368 16.6995 2.26534 17.0427 2.1232C17.3858 1.98106 17.7536 1.9079 18.1251 1.9079C18.4965 1.9079 18.8643 1.98106 19.2075 2.1232C19.5506 2.26534 19.8624 2.47368 20.1251 2.73633C20.3877 2.99897 20.596 3.31077 20.7382 3.65393C20.8803 3.99709 20.9535 4.36489 20.9535 4.73633C20.9535 5.10776 20.8803 5.47556 20.7382 5.81872C20.596 6.16188 20.3877 6.47368 20.1251 6.73633L6.62506 20.2363L1.12506 21.7363L2.62506 16.2363L16.1251 2.73633Z" stroke="#919AA5" stroke-width="2" stroke-linecap="round" stroke-linejoin="round"/>
</svg>
