<svg width="921" height="561" viewBox="0 0 921 561" fill="none" xmlns="http://www.w3.org/2000/svg">
<g clip-path="url(#clip0)">
<path d="M247.209 392.402H84.209V398.402H247.209V392.402Z" fill="#F2F2F2"/>
<path d="M616.209 392.402H453.209V398.402H616.209V392.402Z" fill="#F2F2F2"/>
<path d="M867.209 392.402H704.209V398.402H867.209V392.402Z" fill="#F2F2F2"/>
<path d="M868.165 301.519C866.665 302.294 865.272 303.257 864.017 304.386C862.741 303.252 861.324 302.288 859.801 301.519C858.301 302.294 856.907 303.257 855.653 304.386C854.377 303.252 852.96 302.288 851.436 301.519C851.436 301.519 844.935 304.716 844.953 308.624C844.953 308.721 844.958 308.819 844.966 308.915C845.188 311.473 851.91 312.125 855.603 310.92C858.336 311.699 861.233 311.699 863.967 310.92C867.644 312.145 874.502 311.443 874.703 308.855C874.71 308.758 874.714 308.661 874.713 308.564C874.695 304.656 868.165 301.519 868.165 301.519Z" fill="#F2F2F2"/>
<path d="M6.9721 167.108L1.2041 162.494L33.5011 133.658H115.397V159.034L62.3381 194.791L6.9721 167.108Z" fill="#3F3D56"/>
<path d="M130.329 149.833V134.234H119.456V138.054L115.397 133.658L88.8679 162.494L78.4869 169.415L62.3899 287.016L86.6649 311.291H143.081V163.648L130.329 149.833Z" fill="#CCCCCC"/>
<path d="M88.8678 162.494H1.20435V311.291H88.8678V162.494Z" fill="#F2F2F2"/>
<path d="M51.38 274.957H35.2314V311.291H51.38V274.957Z" fill="#CCCCCC"/>
<path d="M17.93 285.338V279.571H11.009V285.338H17.353H17.93Z" fill="#3F3D56"/>
<path d="M17.353 289.952H11.009V295.72H17.93V289.952H17.353Z" fill="#3F3D56"/>
<path d="M29.4643 279.571H22.5435V285.338H29.4643V279.571Z" fill="#3F3D56"/>
<path d="M29.4643 289.952H22.5435V295.72H29.4643V289.952Z" fill="#3F3D56"/>
<path d="M65.222 285.338V279.571H58.301V285.338H64.645H65.222Z" fill="#3F3D56"/>
<path d="M64.645 289.952H58.301V295.72H65.222V289.952H64.645Z" fill="#3F3D56"/>
<path d="M76.7562 279.571H69.8354V285.338H76.7562V279.571Z" fill="#3F3D56"/>
<path d="M76.7562 289.952H69.8354V295.72H76.7562V289.952Z" fill="#3F3D56"/>
<path d="M113.667 169.992V164.224H106.746V169.992H113.091H113.667Z" fill="#3F3D56"/>
<path d="M113.091 174.606H106.746V180.373H113.667V174.606H113.091Z" fill="#3F3D56"/>
<path d="M125.202 164.224H118.281V169.992H125.202V164.224Z" fill="#3F3D56"/>
<path d="M125.202 174.606H118.281V180.373H125.202V174.606Z" fill="#3F3D56"/>
<path d="M113.667 202.289V196.522H106.746V202.289H113.091H113.667Z" fill="#3F3D56"/>
<path d="M113.091 206.903H106.746V212.67H113.667V206.903H113.091Z" fill="#3F3D56"/>
<path d="M125.202 196.522H118.281V202.289H125.202V196.522Z" fill="#3F3D56"/>
<path d="M125.202 206.903H118.281V212.67H125.202V206.903Z" fill="#3F3D56"/>
<path d="M113.667 234.586V228.819H106.746V234.586H113.091H113.667Z" fill="#3F3D56"/>
<path d="M113.091 239.2H106.746V244.967H113.667V239.2H113.091Z" fill="#3F3D56"/>
<path d="M125.202 228.819H118.281V234.586H125.202V228.819Z" fill="#3F3D56"/>
<path d="M125.202 239.2H118.281V244.967H125.202V239.2Z" fill="#3F3D56"/>
<path d="M113.667 266.883V261.116H106.746V266.883H113.091H113.667Z" fill="#3F3D56"/>
<path d="M113.091 271.497H106.746V277.264H113.667V271.497H113.091Z" fill="#3F3D56"/>
<path d="M125.202 261.116H118.281V266.883H125.202V261.116Z" fill="#3F3D56"/>
<path d="M125.202 271.497H118.281V277.264H125.202V271.497Z" fill="#3F3D56"/>
<path d="M77.9098 169.992H11.0088V183.833H77.9098V169.992Z" fill="#3F3D56"/>
<path d="M77.9098 197.675H11.0088V211.517H77.9098V197.675Z" fill="#3F3D56"/>
<path d="M77.9098 225.358H11.0088V239.2H77.9098V225.358Z" fill="#3F3D56"/>
<path d="M77.9098 253.041H11.0088V266.883H77.9098V253.041Z" fill="#3F3D56"/>
<path d="M138.204 302.355C136.705 303.13 135.311 304.093 134.056 305.222C132.781 304.088 131.364 303.124 129.84 302.355C128.341 303.13 126.947 304.093 125.692 305.222C124.417 304.088 123 303.124 121.476 302.355C121.476 302.355 114.975 305.553 114.993 309.46C114.993 309.558 114.998 309.655 115.006 309.752C115.228 312.31 121.95 312.962 125.643 311.756C128.376 312.536 131.273 312.536 134.007 311.756C137.683 312.981 144.542 312.279 144.743 309.692C144.75 309.595 144.754 309.498 144.753 309.4C144.735 305.493 138.204 302.355 138.204 302.355Z" fill="#00FFD9"/>
<path d="M108.177 167.108L102.409 162.494L134.706 133.658H216.602V159.034L163.543 194.791L108.177 167.108Z" fill="#3F3D56"/>
<path d="M231.534 149.833V134.234H220.661V138.054L216.602 133.658L190.073 162.494L179.692 169.415L163.595 287.016L187.87 311.291H244.286V163.648L231.534 149.833Z" fill="#CCCCCC"/>
<path d="M190.073 162.494H102.409V311.291H190.073V162.494Z" fill="#F2F2F2"/>
<path d="M152.585 274.957H136.437V311.291H152.585V274.957Z" fill="#CCCCCC"/>
<path d="M119.135 285.338V279.571H112.214V285.338H118.558H119.135Z" fill="#3F3D56"/>
<path d="M118.558 289.952H112.214V295.72H119.135V289.952H118.558Z" fill="#3F3D56"/>
<path d="M130.669 279.571H123.749V285.338H130.669V279.571Z" fill="#3F3D56"/>
<path d="M130.669 289.952H123.749V295.72H130.669V289.952Z" fill="#3F3D56"/>
<path d="M166.427 285.338V279.571H159.506V285.338H165.85H166.427Z" fill="#3F3D56"/>
<path d="M165.85 289.952H159.506V295.72H166.427V289.952H165.85Z" fill="#3F3D56"/>
<path d="M177.961 279.571H171.041V285.338H177.961V279.571Z" fill="#3F3D56"/>
<path d="M177.961 289.952H171.041V295.72H177.961V289.952Z" fill="#3F3D56"/>
<path d="M214.872 169.992V164.224H207.951V169.992H214.296H214.872Z" fill="#3F3D56"/>
<path d="M214.296 174.606H207.951V180.373H214.872V174.606H214.296Z" fill="#3F3D56"/>
<path d="M226.407 164.224H219.486V169.992H226.407V164.224Z" fill="#3F3D56"/>
<path d="M226.407 174.606H219.486V180.373H226.407V174.606Z" fill="#3F3D56"/>
<path d="M214.872 202.289V196.522H207.951V202.289H214.296H214.872Z" fill="#3F3D56"/>
<path d="M214.296 206.903H207.951V212.67H214.872V206.903H214.296Z" fill="#3F3D56"/>
<path d="M226.407 196.522H219.486V202.289H226.407V196.522Z" fill="#3F3D56"/>
<path d="M226.407 206.903H219.486V212.67H226.407V206.903Z" fill="#3F3D56"/>
<path d="M214.872 234.586V228.819H207.951V234.586H214.296H214.872Z" fill="#3F3D56"/>
<path d="M214.296 239.2H207.951V244.967H214.872V239.2H214.296Z" fill="#3F3D56"/>
<path d="M226.407 228.819H219.486V234.586H226.407V228.819Z" fill="#3F3D56"/>
<path d="M226.407 239.2H219.486V244.967H226.407V239.2Z" fill="#3F3D56"/>
<path d="M214.872 266.883V261.116H207.951V266.883H214.296H214.872Z" fill="#3F3D56"/>
<path d="M214.296 271.497H207.951V277.264H214.872V271.497H214.296Z" fill="#3F3D56"/>
<path d="M226.407 261.116H219.486V266.883H226.407V261.116Z" fill="#3F3D56"/>
<path d="M226.407 271.497H219.486V277.264H226.407V271.497Z" fill="#3F3D56"/>
<path d="M179.115 169.992H112.214V183.833H179.115V169.992Z" fill="#3F3D56"/>
<path d="M179.115 197.675H112.214V211.517H179.115V197.675Z" fill="#3F3D56"/>
<path d="M179.115 225.358H112.214V239.2H179.115V225.358Z" fill="#3F3D56"/>
<path d="M179.115 253.041H112.214V266.883H179.115V253.041Z" fill="#3F3D56"/>
<path d="M121.748 57.2816C137.566 57.2816 150.389 44.4586 150.389 28.6408C150.389 12.8229 137.566 0 121.748 0C105.931 0 93.1077 12.8229 93.1077 28.6408C93.1077 44.4586 105.931 57.2816 121.748 57.2816Z" fill="#FF6584"/>
<path d="M305.305 200.449H302.512V310.768H305.305V200.449Z" fill="#3F3D56"/>
<path d="M332.559 232.555C332.565 233.769 332.554 234.977 332.526 236.179C331.524 279.606 279.46 279.846 278.058 236.43C278.019 235.228 277.997 234.02 277.991 232.807C277.767 184.264 304.87 144.786 304.87 144.786C304.87 144.786 332.336 184.012 332.559 232.555Z" fill="#E6E6E6"/>
<path d="M295.591 302.11C294.092 302.885 292.698 303.849 291.443 304.977C290.168 303.844 288.75 302.88 287.227 302.11C285.728 302.885 284.334 303.849 283.079 304.977C281.804 303.844 280.386 302.88 278.863 302.11C278.863 302.11 272.361 305.308 272.379 309.215C272.38 309.313 272.384 309.41 272.393 309.507C272.615 312.065 279.337 312.717 283.029 311.512C285.763 312.291 288.66 312.291 291.393 311.512C295.07 312.737 301.929 312.035 302.129 309.447C302.137 309.35 302.14 309.253 302.14 309.155C302.122 305.248 295.591 302.11 295.591 302.11Z" fill="#CCCCCC"/>
<path d="M373.739 263.999L370.279 258.232L402.576 205.457H485.625V213.531L455.635 270.92L421.031 277.841L373.739 263.999Z" fill="#3F3D56"/>
<path d="M499.921 246.794V203.655H489.048V209.346L485.625 205.457L457.942 258.232L453.328 262.846L447.561 285.915L457.942 311.291H511.001V259.385L499.921 246.794Z" fill="#CCCCCC"/>
<path d="M457.942 258.232H370.279V311.291H457.942V258.232Z" fill="#F2F2F2"/>
<path d="M445.831 274.957H427.375V291.106H445.831V274.957Z" fill="#3F3D56"/>
<path d="M419.878 274.38H403.729V311.291H419.878V274.38Z" fill="#CCCCCC"/>
<path d="M385.274 280.148V274.381H378.353V280.148H384.697H385.274Z" fill="#3F3D56"/>
<path d="M384.697 284.762H378.353V290.529H385.274V284.762H384.697Z" fill="#3F3D56"/>
<path d="M396.808 274.38H389.887V280.148H396.808V274.38Z" fill="#3F3D56"/>
<path d="M396.808 284.762H389.887V290.529H396.808V284.762Z" fill="#3F3D56"/>
<path d="M482.742 281.561V275.794H475.821V281.561H482.165H482.742Z" fill="#3F3D56"/>
<path d="M482.165 286.175H475.821V291.942H482.742V286.175H482.165Z" fill="#3F3D56"/>
<path d="M494.276 275.794H487.355V281.561H494.276V275.794Z" fill="#3F3D56"/>
<path d="M494.276 286.175H487.355V291.942H494.276V286.175Z" fill="#3F3D56"/>
<path d="M410.036 227.148L409.125 225.631L417.623 211.745H439.474V213.869L431.584 228.969L422.479 230.79L410.036 227.148Z" fill="#3F3D56"/>
<path d="M439.474 211.745L432.191 225.631L430.977 226.845L429.459 232.915L432.191 239.591H446.151V225.934L439.474 211.745Z" fill="#CCCCCC"/>
<path d="M432.19 225.631H409.125V239.591H432.19V225.631Z" fill="#F2F2F2"/>
<path d="M418.897 231.647V228.893H415.593V231.647H418.622H418.897Z" fill="#3F3D56"/>
<path d="M418.622 233.85H415.593V236.603H418.897V233.85H418.622Z" fill="#3F3D56"/>
<path d="M424.405 228.893H421.1V231.647H424.405V228.893Z" fill="#3F3D56"/>
<path d="M424.405 233.85H421.1V236.603H424.405V233.85Z" fill="#3F3D56"/>
<path d="M478.29 263.999L474.829 258.232L507.126 205.457H590.176V213.531L560.186 270.92L525.582 277.841L478.29 263.999Z" fill="#3F3D56"/>
<path d="M604.472 246.794V203.655H593.599V209.346L590.176 205.457L562.493 258.232L557.879 262.846L552.111 285.915L562.493 311.291H615.552V259.385L604.472 246.794Z" fill="#CCCCCC"/>
<path d="M562.493 258.232H474.829V311.291H562.493V258.232Z" fill="#F2F2F2"/>
<path d="M550.381 274.957H531.926V291.106H550.381V274.957Z" fill="#3F3D56"/>
<path d="M524.428 274.38H508.28V311.291H524.428V274.38Z" fill="#CCCCCC"/>
<path d="M489.824 280.148V274.38H482.903V280.148H489.248H489.824Z" fill="#3F3D56"/>
<path d="M489.248 284.762H482.903V290.529H489.824V284.762H489.248Z" fill="#3F3D56"/>
<path d="M501.359 274.38H494.438V280.148H501.359V274.38Z" fill="#3F3D56"/>
<path d="M501.359 284.762H494.438V290.529H501.359V284.762Z" fill="#3F3D56"/>
<path d="M587.292 280.725V274.957H580.371V280.725H586.715H587.292Z" fill="#3F3D56"/>
<path d="M586.715 285.338H580.371V291.106H587.292V285.338H586.715Z" fill="#3F3D56"/>
<path d="M598.827 274.957H591.906V280.725H598.827V274.957Z" fill="#3F3D56"/>
<path d="M598.827 285.338H591.906V291.106H598.827V285.338Z" fill="#3F3D56"/>
<path d="M579.495 263.999L576.034 258.232L608.331 205.457H691.381V213.531L661.391 270.92L626.787 277.841L579.495 263.999Z" fill="#3F3D56"/>
<path d="M705.677 246.794V203.655H694.804V209.346L691.381 205.457L663.698 258.232L659.084 262.846L653.316 285.915L663.698 311.291H716.757V259.385L705.677 246.794Z" fill="#CCCCCC"/>
<path d="M663.698 258.232H576.034V311.291H663.698V258.232Z" fill="#F2F2F2"/>
<path d="M651.586 274.957H633.131V291.106H651.586V274.957Z" fill="#3F3D56"/>
<path d="M625.633 274.38H609.485V311.291H625.633V274.38Z" fill="#CCCCCC"/>
<path d="M591.029 280.148V274.38H584.109V280.148H590.453H591.029Z" fill="#3F3D56"/>
<path d="M590.453 284.762H584.109V290.529H591.029V284.762H590.453Z" fill="#3F3D56"/>
<path d="M602.564 274.38H595.643V280.148H602.564V274.38Z" fill="#3F3D56"/>
<path d="M602.564 284.762H595.643V290.529H602.564V284.762Z" fill="#3F3D56"/>
<path d="M688.497 280.725V274.957H681.576V280.725H687.921H688.497Z" fill="#3F3D56"/>
<path d="M687.921 285.338H681.576V291.106H688.497V285.338H687.921Z" fill="#3F3D56"/>
<path d="M700.032 274.957H693.111V280.725H700.032V274.957Z" fill="#3F3D56"/>
<path d="M700.032 285.338H693.111V291.106H700.032V285.338Z" fill="#3F3D56"/>
<path d="M512.077 227.985L511.167 226.467L519.664 212.581H541.516V214.706L533.625 229.806L524.52 231.626L512.077 227.985Z" fill="#3F3D56"/>
<path d="M541.516 212.581L534.232 226.467L533.018 227.681L531.501 233.751L534.232 240.428H548.193V226.771L541.516 212.581Z" fill="#CCCCCC"/>
<path d="M534.232 226.467H511.167V240.428H534.232V226.467Z" fill="#F2F2F2"/>
<path d="M520.939 232.483V229.729H517.634V232.483H520.663H520.939Z" fill="#3F3D56"/>
<path d="M520.663 234.686H517.634V237.44H520.939V234.686H520.663Z" fill="#3F3D56"/>
<path d="M526.446 229.729H523.142V232.483H526.446V229.729Z" fill="#3F3D56"/>
<path d="M526.446 234.686H523.142V237.44H526.446V234.686Z" fill="#3F3D56"/>
<path d="M614.119 227.148L613.208 225.631L621.706 211.745H643.557V213.869L635.666 228.969L626.562 230.79L614.119 227.148Z" fill="#3F3D56"/>
<path d="M643.557 211.745L636.273 225.631L635.059 226.845L633.542 232.915L636.273 239.591H650.234V225.934L643.557 211.745Z" fill="#CCCCCC"/>
<path d="M636.273 225.631H613.208V239.591H636.273V225.631Z" fill="#F2F2F2"/>
<path d="M622.98 231.647V228.893H619.676V231.647H622.705H622.98Z" fill="#3F3D56"/>
<path d="M622.705 233.85H619.676V236.603H622.98V233.85H622.705Z" fill="#3F3D56"/>
<path d="M628.487 228.893H625.183V231.647H628.487V228.893Z" fill="#3F3D56"/>
<path d="M628.487 233.85H625.183V236.603H628.487V233.85Z" fill="#3F3D56"/>
<path d="M684.045 263.999L680.585 258.232L712.882 205.457H795.932V213.531L765.941 270.92L731.337 277.841L684.045 263.999Z" fill="#3F3D56"/>
<path d="M810.228 212.859V203.655H799.354V209.346L795.932 205.457L768.248 258.232L763.634 262.846L757.867 285.915L768.248 311.291H821.308V259.385L810.228 212.859Z" fill="#CCCCCC"/>
<path d="M768.248 258.232H680.585V311.291H768.248V258.232Z" fill="#F2F2F2"/>
<path d="M756.137 274.957H737.682V291.106H756.137V274.957Z" fill="#3F3D56"/>
<path d="M730.184 274.38H714.035V311.291H730.184V274.38Z" fill="#CCCCCC"/>
<path d="M695.58 280.148V274.38H688.659V280.148H695.003H695.58Z" fill="#3F3D56"/>
<path d="M695.003 284.762H688.659V290.529H695.58V284.762H695.003Z" fill="#3F3D56"/>
<path d="M707.115 274.38H700.194V280.148H707.115V274.38Z" fill="#3F3D56"/>
<path d="M707.115 284.762H700.194V290.529H707.115V284.762Z" fill="#3F3D56"/>
<path d="M793.048 280.725V274.957H786.127V280.725H792.471H793.048Z" fill="#3F3D56"/>
<path d="M792.471 285.338H786.127V291.106H793.048V285.338H792.471Z" fill="#3F3D56"/>
<path d="M804.582 274.957H797.662V280.725H804.582V274.957Z" fill="#3F3D56"/>
<path d="M804.582 285.338H797.662V291.106H804.582V285.338Z" fill="#3F3D56"/>
<path d="M716.16 227.985L715.25 226.467L723.747 212.581H745.599V214.706L737.708 229.806L728.603 231.626L716.16 227.985Z" fill="#3F3D56"/>
<path d="M745.599 212.581L738.315 226.467L737.101 227.681L735.583 233.751L738.315 240.428H752.275V226.771L745.599 212.581Z" fill="#CCCCCC"/>
<path d="M738.315 226.467H715.25V240.428H738.315V226.467Z" fill="#F2F2F2"/>
<path d="M725.021 232.483V229.729H721.717V232.483H724.746H725.021Z" fill="#3F3D56"/>
<path d="M724.746 234.686H721.717V237.44H725.021V234.686H724.746Z" fill="#3F3D56"/>
<path d="M730.529 229.729H727.224V232.483H730.529V229.729Z" fill="#3F3D56"/>
<path d="M730.529 234.686H727.224V237.44H730.529V234.686Z" fill="#3F3D56"/>
<path d="M920.418 310.718H0.836426V312.391H920.418V310.718Z" fill="#3F3D56"/>
<path d="M919.582 467.126H0V468.799H919.582V467.126Z" fill="#433D83"/>
<path d="M860.27 200.433H857.478V310.718H860.27V200.433Z" fill="#3F3D56"/>
<path d="M887.517 232.529C887.522 233.742 887.511 234.95 887.483 236.151C886.482 279.565 834.433 279.805 833.032 236.402C832.993 235.201 832.971 233.994 832.965 232.78C832.741 184.252 859.836 144.786 859.836 144.786C859.836 144.786 887.293 184.001 887.517 232.529Z" fill="#E6E6E6"/>
<path d="M307.487 418.723H278.059V423.395H307.487V418.723Z" fill="#3F3D56"/>
<path d="M520.255 419.77L514.183 421.174L283.431 421.298L281.356 416.463C277.737 408.17 276.495 399.035 277.768 390.077C278.762 383.4 281.252 376.766 286.909 373.884L297.149 305.68L424.812 305.452L474.205 345.29C474.205 345.29 497.504 344.871 510.162 360.629C514.168 365.621 517.109 372.233 517.899 381.001L518.398 389.198L520.255 419.77Z" fill="#00FFD9"/>
<path d="M469.573 447.123C485.31 447.123 498.067 434.366 498.067 418.629C498.067 402.892 485.31 390.135 469.573 390.135C453.836 390.135 441.079 402.892 441.079 418.629C441.079 434.366 453.836 447.123 469.573 447.123Z" fill="#3F3D56"/>
<path d="M469.573 433.626C477.855 433.626 484.57 426.911 484.57 418.629C484.57 410.346 477.855 403.632 469.573 403.632C461.29 403.632 454.576 410.346 454.576 418.629C454.576 426.911 461.29 433.626 469.573 433.626Z" fill="#CCCCCC"/>
<path d="M328.973 447.198C344.709 447.198 357.466 434.441 357.466 418.704C357.466 402.967 344.709 390.21 328.973 390.21C313.236 390.21 300.479 402.967 300.479 418.704C300.479 434.441 313.236 447.198 328.973 447.198Z" fill="#3F3D56"/>
<path d="M328.973 433.701C337.255 433.701 343.969 426.987 343.969 418.704C343.969 410.422 337.255 403.707 328.973 403.707C320.69 403.707 313.976 410.422 313.976 418.704C313.976 426.987 320.69 433.701 328.973 433.701Z" fill="#CCCCCC"/>
<path d="M454.581 340.633L385.653 340.663H377.239L363.032 340.673V339.637L363.022 327.145L363.012 313.118H372.463L380.877 313.108L395.782 313.098H404.196L421.403 313.088L454.581 340.633Z" fill="white"/>
<path d="M351.817 340.683L315.389 340.703L315.379 333.555V321.064L315.369 313.148H320.703L329.117 313.138L351.807 313.128L351.817 340.683Z" fill="white"/>
<path d="M367.714 361.23H363.043V370.105H367.714V361.23Z" fill="#3F3D56"/>
<path d="M444.781 353.247L444.779 348.576L435.903 348.58L435.906 353.251L444.781 353.247Z" fill="#3F3D56"/>
<path d="M439.169 331.106H439.683C442.272 331.106 444.755 332.134 446.586 333.965C448.417 335.796 449.446 338.279 449.446 340.868C449.446 343.458 448.417 345.941 446.586 347.772C444.755 349.602 442.272 350.631 439.683 350.631H439.169V331.106Z" fill="#3F3D56"/>
<path d="M518.398 389.198C514.866 389.582 511.311 388.708 508.36 386.728C505.409 384.749 503.252 381.791 502.268 378.377C501.283 374.963 501.535 371.311 502.979 368.064C504.424 364.818 506.967 362.185 510.162 360.629C514.168 365.621 517.109 372.233 517.899 381.001L518.398 389.198Z" fill="#3F3D56"/>
<path d="M380.877 313.108L363.032 339.637L363.022 327.145L372.463 313.118L380.877 313.108Z" fill="#F2F2F2"/>
<path d="M329.117 313.138L315.379 333.555V321.064L320.703 313.148L329.117 313.138Z" fill="#F2F2F2"/>
<path d="M404.196 313.098L385.653 340.663H377.239L395.782 313.098H404.196Z" fill="#F2F2F2"/>
<path d="M681.836 360.019L699.711 360.028L699.713 357.191L681.837 357.181L681.836 360.019Z" fill="#3F3D56"/>
<path d="M552.592 357.822L556.28 358.675L696.449 358.75L697.709 355.813C699.908 350.776 700.662 345.227 699.888 339.785C699.285 335.729 697.772 331.699 694.336 329.949L688.116 288.519L610.568 288.381L580.565 312.58C580.565 312.58 566.412 312.326 558.723 321.898C555.95 325.457 554.312 329.769 554.024 334.272L553.72 339.252L552.592 357.822Z" fill="#3F3D56"/>
<path d="M583.379 374.437C592.938 374.437 600.687 366.688 600.687 357.129C600.687 347.57 592.938 339.821 583.379 339.821C573.82 339.821 566.071 347.57 566.071 357.129C566.071 366.688 573.82 374.437 583.379 374.437Z" fill="#3F3D56"/>
<path d="M583.379 366.238C588.41 366.238 592.488 362.16 592.488 357.129C592.488 352.098 588.41 348.019 583.379 348.019C578.348 348.019 574.269 352.098 574.269 357.129C574.269 362.16 578.348 366.238 583.379 366.238Z" fill="#CCCCCC"/>
<path d="M668.785 374.483C678.344 374.483 686.093 366.734 686.093 357.174C686.093 347.615 678.344 339.866 668.785 339.866C659.226 339.866 651.477 347.615 651.477 357.174C651.477 366.734 659.226 374.483 668.785 374.483Z" fill="#3F3D56"/>
<path d="M668.785 366.284C673.816 366.284 677.894 362.206 677.894 357.175C677.894 352.143 673.816 348.065 668.785 348.065C663.754 348.065 659.675 352.143 659.675 357.175C659.675 362.206 663.754 366.284 668.785 366.284Z" fill="#CCCCCC"/>
<path d="M592.486 309.751L634.355 309.77H639.466L648.096 309.776V309.146L648.102 301.558L648.108 293.037H642.367L637.256 293.031L628.203 293.025H623.091L612.639 293.019L592.486 309.751Z" fill="white"/>
<path d="M654.908 309.782L677.036 309.794L677.042 305.452V297.864L677.048 293.056H673.808L668.697 293.05L654.915 293.044L654.908 309.782Z" fill="white"/>
<path d="M645.25 327.653L648.088 327.654L648.091 322.263L645.253 322.262L645.25 327.653Z" fill="#3F3D56"/>
<path d="M603.829 317.416L603.831 314.578L598.44 314.576L598.438 317.413L603.829 317.416Z" fill="#3F3D56"/>
<path d="M601.844 315.826L601.532 315.826C599.959 315.825 598.451 315.199 597.34 314.087C596.228 312.974 595.604 311.465 595.605 309.892C595.606 308.32 596.231 306.812 597.344 305.7C598.457 304.588 599.965 303.965 601.538 303.965L601.85 303.966L601.844 315.826Z" fill="#3F3D56"/>
<path d="M553.72 339.252C555.866 339.485 558.025 338.954 559.818 337.751C561.61 336.549 562.921 334.752 563.519 332.678C564.117 330.604 563.963 328.386 563.086 326.414C562.209 324.442 560.664 322.842 558.723 321.898C555.95 325.457 554.312 329.769 554.024 334.272L553.72 339.252Z" fill="#3F3D56"/>
<path d="M637.256 293.031L648.096 309.146L648.102 301.558L642.367 293.037L637.256 293.031Z" fill="#F2F2F2"/>
<path d="M668.697 293.05L677.042 305.452V297.864L673.808 293.056L668.697 293.05Z" fill="#F2F2F2"/>
<path d="M623.091 293.025L634.355 309.77H639.466L628.203 293.025H623.091Z" fill="#F2F2F2"/>
<path d="M160.141 486.959C160.141 486.959 160.141 518.677 167.42 526.997C167.42 526.997 168.98 531.156 169.5 532.716C169.791 533.604 170.138 534.473 170.54 535.316V537.396C170.54 537.396 184.58 535.836 186.14 532.196L183.54 529.076C183.54 529.076 183.02 528.556 183.54 526.997C183.629 526.827 183.67 526.636 183.66 526.445C183.65 526.253 183.589 526.068 183.482 525.908C183.376 525.749 183.229 525.621 183.056 525.538C182.883 525.455 182.691 525.42 182.5 525.437L178.86 517.117L179.38 482.799L176.78 435.481L154.421 434.441L160.141 486.959Z" fill="#2F2E41"/>
<path d="M171.58 534.276C171.58 534.276 167.941 545.196 171.58 545.716C175.22 546.236 206.939 546.756 206.419 542.596C205.899 538.436 195.499 538.956 195.499 538.956L184.58 532.196L171.58 534.276Z" fill="#2F2E41"/>
<path d="M139.342 435.481C138.895 440.372 139.986 445.279 142.462 449.52C146.622 456.8 144.022 481.239 144.022 481.239L107.104 513.477C107.104 513.477 114.383 525.957 116.983 525.437C119.583 524.917 160.661 491.638 160.661 491.638L176.78 437.561L139.342 435.481Z" fill="#2F2E41"/>
<path d="M107.611 512.099C107.611 512.099 96.4395 514.871 97.9488 518.224C99.4582 521.576 115.999 548.645 119.235 545.979C122.47 543.313 116.463 534.807 116.463 534.807L116.327 521.966L107.611 512.099Z" fill="#2F2E41"/>
<path d="M159.621 350.725C166.226 350.725 171.58 345.371 171.58 338.766C171.58 332.161 166.226 326.807 159.621 326.807C153.016 326.807 147.662 332.161 147.662 338.766C147.662 345.371 153.016 350.725 159.621 350.725Z" fill="#FFB8B8"/>
<path d="M150.211 342.986L150.74 358.375L160.803 362.351C160.803 362.351 161.79 346.593 163.183 345.72C164.576 344.846 150.211 342.986 150.211 342.986Z" fill="#FFB8B8"/>
<path d="M163.261 364.245C163.261 364.245 149.222 350.205 145.582 350.725C141.942 351.245 141.942 352.805 141.942 353.845C141.942 354.885 142.982 355.405 141.942 355.925C140.902 356.445 139.862 355.925 139.862 357.485C139.862 359.045 130.502 374.644 133.622 391.803C136.742 408.963 140.382 417.282 138.822 426.642C137.262 436.001 138.302 438.081 138.302 438.081C138.302 438.081 177.3 441.201 177.82 437.561C178.34 433.921 176.26 436.001 178.86 433.401C181.46 430.801 180.42 430.801 180.42 429.241C180.42 427.682 168.981 364.245 163.261 364.245Z" fill="#575A89"/>
<path d="M155.981 434.961C155.981 434.961 162.221 450.04 166.901 446.401C171.58 442.761 164.821 430.281 164.821 430.281L155.981 434.961Z" fill="#FFB8B8"/>
<path d="M140.902 365.285C140.902 365.285 128.685 366.683 133.234 389.123C137.782 411.562 155.461 437.561 155.461 437.561L167.42 431.841L151.821 401.163L155.461 381.924C155.461 381.924 157.541 363.725 140.902 365.285Z" fill="#575A89"/>
<path opacity="0.2" d="M151.561 401.423L168.72 430.021L167.161 431.581L151.561 401.423Z" fill="black"/>
<path opacity="0.2" d="M142.479 414.75L156.241 437.301H151.561L142.479 414.75Z" fill="black"/>
<path d="M154.208 345.952C155.223 345.541 156.274 345.228 157.349 345.017C159.21 344.387 160.783 343.112 161.785 341.422C162.786 339.732 163.149 337.739 162.808 335.805C162.66 335.313 162.593 334.8 162.611 334.287C162.758 333.732 163.066 333.234 163.496 332.855C163.927 332.476 164.46 332.234 165.028 332.157C166.164 332.025 167.288 331.811 168.393 331.516C169.202 331.153 169.901 330.584 170.423 329.867C170.945 329.15 171.27 328.31 171.368 327.429C171.538 325.656 171.143 323.874 170.24 322.339L169.837 323.498C169.223 322.978 168.767 322.297 168.522 321.531C168.064 321.607 167.634 321.8 167.273 322.091C166.911 322.382 166.63 322.761 166.457 323.191C165.811 323.572 165.718 322.007 165.004 321.776C164.69 321.737 164.373 321.815 164.113 321.996C162.675 322.667 161.003 322.093 159.461 321.721C156.789 321.081 154.004 321.077 151.331 321.712C149.528 322.066 147.862 322.923 146.526 324.184C145.532 325.313 144.768 326.625 144.278 328.046C142.783 331.441 142.159 335.155 142.465 338.852C142.84 341.85 144.094 344.67 146.069 346.956C147.099 348.142 150.456 352.278 152.297 351.573C154.611 350.687 151.482 347.394 154.208 345.952Z" fill="#2F2E41"/>
<path opacity="0.2" d="M173.566 455.732L159.883 491.607L160.575 491.871L174.258 455.995L173.566 455.732Z" fill="black"/>
<path d="M163.187 367.1C163.595 367.1 163.927 366.769 163.927 366.36C163.927 365.951 163.595 365.62 163.187 365.62C162.778 365.62 162.447 365.951 162.447 366.36C162.447 366.769 162.778 367.1 163.187 367.1Z" fill="#D0CDE1"/>
<path d="M169.475 387.072C169.396 387.072 169.319 387.046 169.255 386.999C169.191 386.952 169.145 386.886 169.121 386.811L162.834 366.469C162.805 366.376 162.814 366.274 162.86 366.187C162.906 366.101 162.984 366.036 163.078 366.007C163.172 365.978 163.273 365.987 163.36 366.033C163.446 366.079 163.511 366.157 163.54 366.251L169.828 386.593C169.845 386.648 169.849 386.706 169.839 386.764C169.829 386.821 169.806 386.875 169.772 386.921C169.738 386.968 169.693 387.006 169.641 387.032C169.589 387.058 169.532 387.071 169.475 387.072Z" fill="#D0CDE1"/>
<path d="M833.834 358.182C840.732 358.182 846.323 352.591 846.323 345.693C846.323 338.796 840.732 333.204 833.834 333.204C826.937 333.204 821.345 338.796 821.345 345.693C821.345 352.591 826.937 358.182 833.834 358.182Z" fill="#2F2E41"/>
<path d="M816.082 421.346L814.189 425.133C814.189 425.133 808.13 434.979 812.295 436.115C816.461 437.251 817.786 428.73 817.786 428.73L818.544 424.186L816.082 421.346Z" fill="#A0616A"/>
<path d="M823.656 402.033L818.922 414.529L814.189 423.239L820.059 427.026L824.792 418.695L830.473 405.63L823.656 402.033Z" fill="#D0CDE1"/>
<path d="M837.1 460.541L846.567 470.576L863.229 498.789L870.425 496.517L861.904 479.665C861.904 479.665 856.981 466.789 854.519 465.085C852.058 463.381 847.892 452.209 847.892 452.209L843.348 448.612L837.1 460.541Z" fill="#A0616A"/>
<path d="M817.597 466.032L816.84 469.251C816.84 469.251 814.378 479.286 810.591 483.83L801.503 499.546L794.686 497.274L808.13 465.464L817.597 466.032Z" fill="#A0616A"/>
<path d="M831.703 360.282C837.35 360.282 841.928 355.704 841.928 350.057C841.928 344.41 837.35 339.832 831.703 339.832C826.056 339.832 821.479 344.41 821.479 350.057C821.479 355.704 826.056 360.282 831.703 360.282Z" fill="#A0616A"/>
<path d="M839.75 355.075L841.076 366.057L832.555 370.222C832.555 370.222 832.555 360.755 830.283 358.293L839.75 355.075Z" fill="#A0616A"/>
<path d="M866.448 425.89L867.395 429.109C867.395 429.109 873.644 441.417 868.342 441.417C863.04 441.417 862.093 430.056 862.093 430.056L861.525 427.216L866.448 425.89Z" fill="#A0616A"/>
<path d="M822.899 413.015L824.224 422.293L808.13 456.186L807.183 466.032L837.289 469.819L843.916 451.452L854.52 465.085L848.461 451.073C848.461 451.073 846.567 441.606 847.135 439.145C847.703 436.683 846.757 424.376 845.052 421.346C843.348 418.316 822.899 413.015 822.899 413.015Z" fill="#2F2E41"/>
<path d="M862.094 498.789L871.182 495.759L874.022 500.303C874.022 500.303 879.513 501.818 879.324 505.794C879.351 509.412 879.667 513.021 880.271 516.587L876.295 516.966L874.78 509.203L867.017 518.481C867.017 518.481 853.194 519.238 852.626 516.966C852.058 514.694 862.472 512.232 862.472 512.232L864.176 504.09L862.094 498.789Z" fill="#2F2E41"/>
<path d="M794.118 496.138L802.449 498.789V500.682C802.449 500.682 804.911 504.469 804.532 507.688C804.153 510.907 802.449 518.67 802.449 518.67H798.094L798.284 511.475L789.574 518.67C789.574 518.67 774.047 517.534 774.047 515.072C774.047 512.611 785.976 510.907 785.976 510.907L794.118 496.138Z" fill="#2F2E41"/>
<path d="M831.987 367.95C831.987 367.95 839.75 360.187 843.348 362.08V365.489C843.348 365.489 848.65 367.95 848.839 371.737C849.028 375.524 854.52 409.985 854.52 409.985L867.395 454.86C867.395 454.86 863.419 461.109 848.839 454.103L839.75 423.239C839.75 423.239 849.407 458.079 844.673 457.511C839.94 456.943 821.384 413.772 821.384 413.772L822.709 393.323C822.709 393.323 819.68 384.423 825.739 378.364L831.987 367.95Z" fill="#D0CDE1"/>
<path d="M845.242 369.086C845.242 369.086 848.461 370.222 850.733 375.145C853.005 380.068 864.366 414.719 864.366 414.719L867.395 427.026L858.875 429.109L854.709 416.423L839.183 387.642C839.183 387.642 836.721 372.494 845.242 369.086Z" fill="#D0CDE1"/>
<path d="M844.493 341.9C844.451 340.725 844.121 339.578 843.532 338.56C842.942 337.543 842.112 336.685 841.113 336.064C842.153 333.977 843.081 331.595 842.396 329.366C842.118 328.501 841.615 327.726 840.938 327.121C840.261 326.515 839.435 326.101 838.545 325.92C837.552 325.783 836.543 325.796 835.553 325.959L830.888 326.488C829.36 326.548 827.866 326.95 826.515 327.666C825.845 328.089 825.283 328.665 824.876 329.345C824.469 330.026 824.227 330.792 824.17 331.583C824.113 332.374 824.243 333.167 824.549 333.899C824.854 334.63 825.327 335.28 825.93 335.796C822.665 338.407 820.484 340.389 818.999 344.296C821.489 342.266 824.601 341.152 827.814 341.14C829.999 341.022 832.143 341.76 833.792 343.198C835.44 344.636 836.463 346.66 836.643 348.84C836.624 349.933 836.72 351.026 836.93 352.1C837.05 352.634 837.349 353.112 837.778 353.453C838.206 353.794 838.739 353.978 839.287 353.975C839.137 353.996 838.212 351.219 838.863 349.937L838.873 349.916C839.016 349.651 839.252 349.448 839.536 349.347C839.789 349.25 840.06 349.208 840.33 349.224C840.601 349.239 840.865 349.312 841.105 349.438C841.345 349.564 841.556 349.739 841.723 349.952C841.89 350.165 842.01 350.412 842.074 350.675C842.437 352.066 843.016 353.841 843.522 353.37C844.185 352.753 843.907 347.312 844.085 346.469C844.442 344.974 844.58 343.435 844.493 341.9Z" fill="#2F2E41"/>
<path d="M841.062 336.027C841.062 336.027 830.8 336.696 825.892 335.804L841.062 336.027Z" fill="#D0CDE1"/>
<path d="M840.48 334.653C841.519 332.566 842.448 330.184 841.763 327.955C841.443 326.951 840.817 326.071 839.973 325.439C840.618 325.736 841.194 326.163 841.665 326.694C842.136 327.225 842.492 327.848 842.71 328.523C843.395 330.752 842.466 333.134 841.427 335.222C840.603 335.098 842.55 335.757 840.48 334.653Z" fill="#2F2E41"/>
<path opacity="0.2" d="M837.194 387.737L851.963 413.867L857.644 428.068L849.691 414.435L837.194 387.737Z" fill="black"/>
<path d="M139.028 536.251C139.028 536.251 134.399 546.329 130.639 549.155C126.833 546.321 122.113 536.251 122.113 536.251C122.113 536.251 117.483 546.329 113.724 549.155C109.918 546.321 105.197 536.251 105.197 536.251C105.197 536.251 92.0481 549.693 92.0845 556.059C92.0854 556.218 92.0944 556.377 92.1115 556.534C92.5603 560.702 106.155 561.764 113.623 559.8C119.19 561.07 124.972 561.07 130.539 559.8C137.975 561.796 151.846 560.652 152.251 556.437C152.266 556.279 152.274 556.12 152.273 555.961C152.236 549.595 139.028 536.251 139.028 536.251Z" fill="#00FFD9"/>
<path d="M415.268 536.251C415.268 536.251 410.638 546.329 406.879 549.155C403.073 546.321 398.352 536.251 398.352 536.251C398.352 536.251 393.722 546.329 389.963 549.155C386.157 546.321 381.437 536.251 381.437 536.251C381.437 536.251 368.288 549.693 368.324 556.059C368.325 556.218 368.334 556.377 368.351 556.534C368.8 560.702 382.394 561.764 389.862 559.8C395.429 561.07 401.211 561.07 406.778 559.8C414.214 561.796 428.085 560.652 428.491 556.437C428.506 556.279 428.513 556.12 428.512 555.961C428.476 549.595 415.268 536.251 415.268 536.251Z" fill="#E6E6E6"/>
<path d="M689.719 536.251C689.719 536.251 685.09 546.329 681.331 549.155C677.524 546.321 672.804 536.251 672.804 536.251C672.804 536.251 668.174 546.329 664.415 549.155C660.609 546.321 655.888 536.251 655.888 536.251C655.888 536.251 642.739 549.693 642.776 556.059C642.777 556.218 642.786 556.377 642.803 556.534C643.251 560.702 656.846 561.764 664.314 559.8C669.881 561.07 675.663 561.07 681.23 559.8C688.666 561.796 702.537 560.652 702.942 556.437C702.958 556.279 702.965 556.12 702.964 555.961C702.928 549.595 689.719 536.251 689.719 536.251Z" fill="#00FFD9"/>
<path d="M155.614 47.2908L155.493 47.3568C154.184 48.0727 152.717 48.4504 151.225 48.4557C149.733 48.4609 148.264 48.0935 146.95 47.3868C146.874 47.346 146.799 47.3056 146.724 47.2658C145.41 46.5645 143.942 46.2001 142.453 46.2052C140.964 46.2104 139.499 46.5849 138.19 47.2953L138.077 47.3569C136.768 48.0728 135.301 48.4505 133.809 48.4557C132.317 48.4609 130.847 48.0935 129.533 47.3869C129.455 47.3444 129.376 47.3026 129.299 47.2613C128 46.5632 126.55 46.1965 125.075 46.1939C123.601 46.1913 122.149 46.5528 120.848 47.2463C116.874 49.3864 111.502 53.0454 111.526 57.1776C111.527 57.3411 111.536 57.5043 111.553 57.6668C112.016 61.9582 126.013 63.0516 133.702 61.0292C139.434 62.337 145.386 62.337 151.118 61.0292C158.774 63.084 173.056 61.9068 173.474 57.5662C173.489 57.4036 173.497 57.2402 173.496 57.0769C173.472 52.9424 168.052 49.3217 164.054 47.2118C162.749 46.5292 161.296 46.1793 159.824 46.1931C158.352 46.2069 156.906 46.584 155.614 47.2908Z" fill="#E6E6E6"/>
<path d="M415.738 92.6462L415.616 92.7122C414.307 93.4281 412.84 93.8058 411.348 93.811C409.856 93.8163 408.387 93.4489 407.073 92.7422C406.997 92.7014 406.922 92.661 406.847 92.6212C405.533 91.9199 404.066 91.5555 402.576 91.5606C401.087 91.5657 399.622 91.9403 398.313 92.6507L398.2 92.7122C396.891 93.4281 395.424 93.8058 393.932 93.8111C392.44 93.8163 390.97 93.4489 389.656 92.7422C389.578 92.6998 389.5 92.658 389.422 92.6167C388.124 91.9186 386.673 91.5519 385.199 91.5493C383.724 91.5467 382.272 91.9082 380.971 92.6017C376.998 94.7418 371.625 98.4008 371.649 102.533C371.65 102.696 371.659 102.86 371.677 103.022C372.139 107.314 386.136 108.407 393.825 106.385C399.557 107.692 405.51 107.692 411.241 106.385C418.898 108.439 433.179 107.262 433.597 102.922C433.613 102.759 433.62 102.596 433.619 102.432C433.595 98.2978 428.176 94.6771 424.177 92.5672C422.872 91.8846 421.42 91.5348 419.947 91.5485C418.475 91.5623 417.029 91.9394 415.738 92.6462Z" fill="#E6E6E6"/>
<path d="M595.522 49.2583L595.401 49.3243C594.092 50.0402 592.625 50.4179 591.133 50.4232C589.641 50.4284 588.171 50.061 586.857 49.3543C586.781 49.3135 586.706 49.2732 586.631 49.2333C585.317 48.532 583.85 48.1676 582.36 48.1727C580.871 48.1779 579.406 48.5524 578.097 49.2628L577.984 49.3244C576.675 50.0403 575.208 50.418 573.716 50.4232C572.224 50.4285 570.755 50.0611 569.441 49.3544C569.362 49.312 569.284 49.2701 569.206 49.2288C567.908 48.5307 566.457 48.164 564.983 48.1614C563.509 48.1588 562.057 48.5203 560.756 49.2138C556.782 51.3539 551.41 55.0129 551.433 59.1452C551.434 59.3086 551.443 59.4718 551.461 59.6343C551.923 63.9257 565.92 65.0191 573.609 62.9967C579.341 64.3046 585.294 64.3046 591.026 62.9967C598.682 65.0515 612.964 63.8743 613.381 59.5337C613.397 59.3711 613.404 59.2078 613.403 59.0444C613.38 54.9099 607.96 51.2892 603.961 49.1793C602.657 48.4968 601.204 48.1469 599.732 48.1607C598.259 48.1745 596.813 48.5515 595.522 49.2583Z" fill="#E6E6E6"/>
<path d="M919.582 559.13H0V560.803H919.582V559.13Z" fill="#433D83"/>
</g>
<defs>
<clipPath id="clip0">
<rect width="920.418" height="560.803" fill="white"/>
</clipPath>
</defs>
</svg>
