<svg width="765" height="686" viewBox="0 0 765 686" fill="none" xmlns="http://www.w3.org/2000/svg">
<path d="M353.34 638.46C518.297 638.46 652.022 504.874 652.022 340.087C652.022 175.3 518.297 41.7134 353.34 41.7134C188.382 41.7134 54.6575 175.3 54.6575 340.087C54.6575 504.874 188.382 638.46 353.34 638.46Z" fill="url(#paint0_linear)"/>
<path d="M353.34 631.141C514.251 631.141 644.695 500.832 644.695 340.087C644.695 179.342 514.251 49.033 353.34 49.033C192.429 49.033 61.9844 179.342 61.9844 340.087C61.9844 500.832 192.429 631.141 353.34 631.141Z" fill="#00FFD9"/>
<path opacity="0.05" d="M259.131 208.014C279.12 208.014 295.323 191.827 295.323 171.86C295.323 151.892 279.12 135.705 259.131 135.705C239.143 135.705 222.939 151.892 222.939 171.86C222.939 191.827 239.143 208.014 259.131 208.014Z" fill="black"/>
<path opacity="0.05" d="M369.83 595.189C389.818 595.189 406.022 579.002 406.022 559.034C406.022 539.067 389.818 522.88 369.83 522.88C349.841 522.88 333.638 539.067 333.638 559.034C333.638 579.002 349.841 595.189 369.83 595.189Z" fill="black"/>
<path opacity="0.05" d="M406.022 372.628C446.891 372.628 480.021 339.532 480.021 298.705C480.021 257.879 446.891 224.783 406.022 224.783C365.154 224.783 332.023 257.879 332.023 298.705C332.023 339.532 365.154 372.628 406.022 372.628Z" fill="black"/>
<path d="M470.378 426.713C433.725 426.713 394.709 424.961 354.825 421.44C266.172 413.623 183.535 398.016 122.151 377.505C60.3234 356.828 27.2872 333.468 29.2066 311.731C30.1756 300.724 39.8834 290.897 58.0441 282.527L58.9669 284.601C41.5998 292.603 32.3441 301.794 31.449 311.934C30.5539 322.074 38.2316 332.989 54.2883 344.033C70.0681 354.883 93.1289 365.41 122.843 375.375C184.071 395.84 266.514 411.401 355.001 419.2C443.488 426.999 527.389 426.104 591.237 416.674C622.225 412.065 646.78 405.759 664.221 397.841C681.976 389.784 691.435 380.492 692.339 370.231C693.372 358.552 682.806 345.747 661.794 333.21L662.966 331.247C685.113 344.457 695.753 357.639 694.618 370.434C692.699 392.181 656.101 409.401 591.579 418.923C556.448 424.095 515.134 426.704 470.378 426.713Z" fill="url(#paint1_linear)"/>
<path opacity="0.5" d="M662.412 329.919C683.369 342.428 694.627 355.426 693.511 368.019C689.644 411.779 538.056 434.161 354.927 418.01C171.797 401.86 26.475 353.297 30.3415 309.537C31.2643 298.724 41.2767 289.256 58.5146 281.273" stroke="#BDBDBD" stroke-width="3" stroke-miterlimit="10"/>
<path d="M390.704 469.579C364.293 458.203 337.338 445.509 310.596 431.838C231.355 391.351 160.622 345.913 111.428 303.877C61.8552 261.527 40.0402 227.502 49.988 208.06C55.0265 198.215 67.715 192.749 87.6843 191.799L87.7951 194.076C68.6931 194.998 56.6598 200.031 52.0182 209.093C47.3765 218.155 50.394 231.153 61.1354 247.405C71.683 263.371 89.1054 281.79 112.914 302.125C161.97 344.069 232.545 389.406 311.629 429.81C338.335 443.454 365.234 456.129 391.608 467.486L390.704 469.579Z" fill="url(#paint2_linear)"/>
<path d="M394.958 468.528C369.036 457.364 342.183 444.753 314.914 430.824C151.237 347.203 34.7895 247.7 54.8142 208.595C59.7604 198.934 72.5781 193.845 91.5508 192.924" stroke="#BDBDBD" stroke-width="3" stroke-miterlimit="10"/>
<path d="M605.107 534.845C581.114 534.845 547.275 527.009 501.596 511.283L502.344 509.126C589.511 539.122 632.634 540.339 646.531 513.191C651.874 502.756 646.891 486.928 632.126 467.421L633.972 466.048C649.53 486.587 654.449 502.802 648.589 514.233C641.53 527.959 627.614 534.836 605.107 534.845Z" fill="url(#paint3_linear)"/>
<path d="M633.04 464.444C647.805 483.895 653.341 500.165 647.555 511.458C634.276 537.389 595.325 540.035 501.975 507.955" stroke="#BDBDBD" stroke-width="3" stroke-miterlimit="10"/>
<g opacity="0.5">
<path opacity="0.5" d="M90.0652 609.985H87.0938V626.79H90.0652V609.985Z" fill="#47E6B1"/>
<path opacity="0.5" d="M96.9861 619.876V616.908H80.1635V619.876H96.9861Z" fill="#47E6B1"/>
</g>
<g opacity="0.5">
<path opacity="0.5" d="M693.751 2.96826H690.779V19.7735H693.751V2.96826Z" fill="#47E6B1"/>
<path opacity="0.5" d="M700.672 12.8597V9.89136L683.849 9.89136V12.8597H700.672Z" fill="#47E6B1"/>
</g>
<g opacity="0.5">
<path opacity="0.5" d="M758.079 461.688H755.108V478.493H758.079V461.688Z" fill="#47E6B1"/>
<path opacity="0.5" d="M765 471.579V468.611H748.177V471.579H765Z" fill="#47E6B1"/>
</g>
<g opacity="0.5">
<path opacity="0.5" d="M99.9575 43.502H96.9861V60.3072H99.9575V43.502Z" fill="#47E6B1"/>
<path opacity="0.5" d="M106.888 53.3934V50.425H90.0651V53.3934H106.888Z" fill="#47E6B1"/>
</g>
<path opacity="0.5" d="M184.763 667.618C183.944 667.263 183.285 666.62 182.911 665.811C182.536 665.002 182.473 664.083 182.733 663.23C182.776 663.099 182.804 662.963 182.816 662.825C182.825 662.441 182.713 662.063 182.497 661.745C182.281 661.427 181.97 661.185 181.61 661.052C181.249 660.919 180.855 660.902 180.484 661.003C180.113 661.105 179.783 661.319 179.54 661.617C179.458 661.729 179.39 661.849 179.337 661.977C178.981 662.794 178.337 663.453 177.527 663.827C176.717 664.201 175.798 664.264 174.944 664.005C174.813 663.961 174.676 663.933 174.538 663.922C174.154 663.913 173.776 664.024 173.458 664.24C173.139 664.456 172.897 664.766 172.764 665.127C172.63 665.487 172.613 665.88 172.715 666.251C172.816 666.622 173.031 666.952 173.329 667.194C173.441 667.276 173.562 667.344 173.689 667.397C174.508 667.752 175.167 668.396 175.541 669.205C175.915 670.014 175.979 670.932 175.719 671.785C175.676 671.917 175.648 672.053 175.636 672.191C175.627 672.575 175.739 672.952 175.955 673.27C176.171 673.588 176.482 673.831 176.842 673.964C177.203 674.097 177.597 674.114 177.968 674.012C178.339 673.911 178.669 673.696 178.912 673.398C178.994 673.287 179.062 673.166 179.115 673.039C179.471 672.221 180.115 671.563 180.925 671.189C181.735 670.815 182.654 670.752 183.508 671.011C183.639 671.054 183.776 671.082 183.914 671.094C184.298 671.103 184.676 670.991 184.994 670.775C185.313 670.559 185.555 670.249 185.688 669.889C185.822 669.528 185.839 669.135 185.737 668.764C185.636 668.394 185.421 668.064 185.123 667.821C185.011 667.74 184.89 667.672 184.763 667.618Z" fill="#4D8AF0"/>
<path opacity="0.5" d="M365.862 679.519C365.043 679.164 364.384 678.521 364.01 677.712C363.636 676.903 363.572 675.984 363.832 675.131C363.876 675 363.903 674.864 363.915 674.726C363.924 674.342 363.812 673.964 363.596 673.646C363.38 673.329 363.07 673.086 362.709 672.953C362.348 672.82 361.954 672.803 361.583 672.904C361.212 673.006 360.882 673.22 360.639 673.518C360.557 673.63 360.489 673.75 360.436 673.878C360.08 674.695 359.436 675.354 358.626 675.728C357.816 676.102 356.897 676.165 356.043 675.906C355.912 675.862 355.775 675.834 355.637 675.823C355.253 675.814 354.875 675.925 354.557 676.141C354.239 676.357 353.996 676.667 353.863 677.028C353.729 677.388 353.712 677.781 353.814 678.152C353.915 678.523 354.13 678.853 354.428 679.095C354.54 679.177 354.661 679.245 354.788 679.298C355.607 679.653 356.266 680.297 356.64 681.106C357.015 681.915 357.078 682.833 356.818 683.686C356.775 683.818 356.747 683.954 356.735 684.092C356.726 684.476 356.838 684.853 357.054 685.171C357.27 685.489 357.581 685.732 357.942 685.865C358.303 685.998 358.696 686.015 359.067 685.913C359.438 685.812 359.768 685.597 360.011 685.299C360.093 685.188 360.161 685.067 360.214 684.94C360.57 684.122 361.214 683.464 362.024 683.09C362.834 682.716 363.753 682.653 364.607 682.912C364.738 682.956 364.875 682.983 365.013 682.995C365.398 683.004 365.775 682.893 366.094 682.676C366.412 682.46 366.654 682.151 366.788 681.79C366.921 681.429 366.938 681.036 366.836 680.666C366.735 680.295 366.52 679.965 366.222 679.722C366.11 679.641 365.989 679.573 365.862 679.519Z" fill="#4D8AF0"/>
<path opacity="0.5" d="M724.12 202.004C723.302 201.649 722.642 201.005 722.268 200.196C721.894 199.387 721.83 198.469 722.09 197.616C722.134 197.484 722.161 197.348 722.173 197.21C722.182 196.826 722.07 196.449 721.854 196.131C721.638 195.813 721.328 195.571 720.967 195.437C720.606 195.304 720.212 195.287 719.841 195.389C719.47 195.49 719.14 195.705 718.897 196.003C718.815 196.114 718.747 196.235 718.694 196.362C718.338 197.18 717.694 197.838 716.884 198.212C716.074 198.586 715.155 198.65 714.301 198.39C714.17 198.347 714.033 198.319 713.895 198.307C713.511 198.298 713.133 198.41 712.815 198.626C712.497 198.842 712.254 199.152 712.121 199.512C711.988 199.873 711.97 200.266 712.072 200.637C712.173 201.007 712.388 201.337 712.686 201.58C712.798 201.661 712.919 201.73 713.046 201.783C713.865 202.138 714.524 202.781 714.898 203.59C715.273 204.399 715.336 205.318 715.077 206.171C715.033 206.302 715.005 206.438 714.993 206.576C714.984 206.96 715.096 207.338 715.312 207.656C715.528 207.974 715.839 208.216 716.2 208.349C716.561 208.482 716.954 208.499 717.325 208.398C717.696 208.296 718.026 208.082 718.269 207.784C718.351 207.672 718.419 207.552 718.472 207.424C718.828 206.607 719.472 205.948 720.282 205.574C721.092 205.2 722.011 205.137 722.865 205.396C722.997 205.44 723.133 205.468 723.271 205.479C723.656 205.488 724.033 205.377 724.352 205.161C724.67 204.945 724.912 204.635 725.046 204.274C725.179 203.914 725.196 203.521 725.094 203.15C724.993 202.779 724.778 202.449 724.48 202.207C724.368 202.125 724.248 202.057 724.12 202.004Z" fill="#4D8AF0"/>
<path opacity="0.5" d="M18.6959 463.623C17.8774 463.268 17.2183 462.625 16.8439 461.816C16.4696 461.007 16.4061 460.088 16.6657 459.235C16.7094 459.104 16.7373 458.968 16.7488 458.83C16.7577 458.446 16.6463 458.068 16.4301 457.75C16.2138 457.433 15.9035 457.19 15.5426 457.057C15.1817 456.924 14.7881 456.907 14.417 457.008C14.0459 457.11 13.7158 457.324 13.4728 457.622C13.3911 457.734 13.323 457.854 13.2698 457.982C12.9143 458.799 12.2703 459.458 11.4603 459.832C10.6504 460.206 9.73099 460.269 8.87728 460.01C8.74572 459.966 8.60941 459.938 8.47125 459.927C8.08664 459.918 7.70884 460.029 7.39066 460.245C7.07248 460.461 6.82983 460.771 6.69665 461.132C6.56346 461.492 6.54639 461.885 6.64783 462.256C6.74926 462.627 6.96412 462.957 7.26238 463.199C7.37388 463.281 7.49469 463.349 7.62227 463.402C8.44071 463.757 9.09986 464.401 9.47422 465.21C9.84858 466.019 9.91201 466.937 9.65244 467.79C9.60872 467.922 9.58083 468.058 9.56938 468.196C9.56039 468.58 9.67181 468.957 9.88807 469.275C10.1043 469.593 10.4146 469.836 10.7755 469.969C11.1365 470.102 11.53 470.119 11.9011 470.017C12.2722 469.916 12.6023 469.701 12.8453 469.403C12.927 469.292 12.9952 469.171 13.0483 469.044C13.4038 468.226 14.0478 467.568 14.8578 467.194C15.6678 466.82 16.5871 466.757 17.4409 467.016C17.5724 467.06 17.7087 467.087 17.8469 467.099C18.2315 467.108 18.6093 466.997 18.9275 466.781C19.2457 466.564 19.4883 466.254 19.6215 465.894C19.7547 465.533 19.7718 465.14 19.6703 464.77C19.5689 464.399 19.354 464.069 19.0557 463.826C18.9443 463.745 18.8234 463.677 18.6959 463.623Z" fill="#4D8AF0"/>
<path opacity="0.5" d="M5.93359 225.4C9.21063 225.4 11.8672 222.747 11.8672 219.473C11.8672 216.199 9.21063 213.545 5.93359 213.545C2.65656 213.545 0 216.199 0 219.473C0 222.747 2.65656 225.4 5.93359 225.4Z" fill="#F55F44"/>
<path opacity="0.5" d="M489.877 26.6874C493.154 26.6874 495.811 24.0336 495.811 20.76C495.811 17.4863 493.154 14.8325 489.877 14.8325C486.6 14.8325 483.943 17.4863 483.943 20.76C483.943 24.0336 486.6 26.6874 489.877 26.6874Z" fill="#4D8AF0"/>
<path opacity="0.5" d="M163.289 11.8549C166.566 11.8549 169.223 9.20111 169.223 5.92746C169.223 2.65382 166.566 0 163.289 0C160.012 0 157.356 2.65382 157.356 5.92746C157.356 9.20111 160.012 11.8549 163.289 11.8549Z" fill="#47E6B1"/>
<path opacity="0.5" d="M602.698 643.595C605.975 643.595 608.632 640.941 608.632 637.668C608.632 634.394 605.975 631.74 602.698 631.74C599.421 631.74 596.765 634.394 596.765 637.668C596.765 640.941 599.421 643.595 602.698 643.595Z" fill="#F55F44"/>
<path d="M462.867 451.04C461.212 450.183 459.284 450.017 457.507 450.579C455.73 451.14 454.249 452.384 453.389 454.036L452.67 455.419L451.027 454.562L436.345 446.947L433.152 445.288C432.706 445.057 432.205 444.952 431.704 444.984C417.649 440.375 406.373 449.252 399.101 463.236C396.512 468.021 394.797 473.227 394.035 478.613L393.869 478.53C393.057 484.291 393.814 489.693 396.637 494.266L396.877 493.796C398.29 496.117 400.109 498.165 402.248 499.843C402.32 500.141 402.455 500.421 402.644 500.663C402.834 500.905 403.073 501.103 403.346 501.244L423.445 511.67L421.913 514.611C421.054 516.264 420.888 518.189 421.451 519.965C422.013 521.74 423.258 523.219 424.912 524.078L429.683 514.86L454.469 527.719L456.093 524.604L457.717 521.488L460.144 516.814H460.227L454.598 527.636L466.456 533.868C480.889 541.353 491.916 531.739 499.926 516.842V516.759L500.415 515.837V515.754L500.83 514.933C508.49 499.769 510.058 485.241 495.552 477.728L483.731 471.644L477.207 484.199H477.124L480.455 477.792L481.987 474.852L483.694 471.561L458.908 458.655L462.867 451.04ZM425.032 504.581L425.106 504.646H425.023L425.032 504.581Z" fill="url(#paint4_linear)"/>
<path d="M456.596 463.627L432.213 510.518L455.683 522.697L480.066 475.805L456.596 463.627Z" fill="#4F617D"/>
<path d="M497.389 514.399V514.316C489.812 528.881 479.283 538.514 465.395 531.314L454.22 525.516L481.701 472.759L492.867 478.557C506.755 485.766 504.965 499.833 497.389 514.399Z" fill="#FF656A"/>
<path d="M488.76 526.77C492.234 523.082 495.141 518.9 497.388 514.362C499.468 510.485 501.07 506.372 502.159 502.11L497.388 499.631L484.469 524.52L488.76 526.77Z" fill="#4A5C81"/>
<path d="M459.49 515.368L475.493 484.592L476.353 485.039C476.817 485.28 477.23 485.61 477.567 486.01C477.904 486.41 478.158 486.873 478.316 487.372C478.474 487.87 478.532 488.395 478.487 488.916C478.442 489.437 478.294 489.944 478.053 490.408L465.717 514.132C465.229 515.069 464.389 515.775 463.381 516.093C462.373 516.412 461.28 516.317 460.341 515.83L459.481 515.384L459.49 515.368Z" fill="#4A5C81"/>
<path d="M406.733 495.04L407.329 493.895L457.2 519.774L454.154 525.632L409.008 502.204C408.388 501.883 407.836 501.444 407.386 500.91C406.936 500.376 406.595 499.759 406.384 499.093C406.173 498.428 406.095 497.727 406.155 497.032C406.215 496.336 406.411 495.66 406.733 495.04Z" fill="#FF6469"/>
<path d="M428.753 452.689L429.348 451.543C429.998 450.294 431.119 449.353 432.463 448.928C433.807 448.504 435.265 448.63 436.516 449.279L481.67 472.711L478.624 478.568L428.753 452.689Z" fill="#FF6469"/>
<path d="M450.926 456.691L423.5 509.448L409.658 502.285C394.404 494.367 394.487 479.415 402.054 464.849C409.63 450.284 421.83 441.619 437.12 449.528L450.926 456.691Z" fill="#FF656A"/>
<path d="M399.738 494.044L405.275 483.443L397.163 479.24C396.37 484.66 397.09 489.739 399.738 494.044Z" fill="#FFF6D5"/>
<path d="M424.386 446.634L418.849 457.235L410.738 453.031C414.77 449.279 419.338 446.938 424.386 446.634Z" fill="#FFF6D5"/>
<path d="M422.942 514.405L425.069 510.315L430.932 513.357L426.355 522.16L425.225 521.573C424.603 521.253 424.051 520.814 423.599 520.28C423.147 519.746 422.806 519.128 422.594 518.463C422.382 517.797 422.303 517.095 422.363 516.399C422.423 515.703 422.619 515.025 422.942 514.405Z" fill="#FF6469"/>
<path d="M462.035 453.321L457.462 462.115L451.599 459.072L453.726 454.982C454.376 453.732 455.496 452.792 456.84 452.367C458.184 451.943 459.642 452.069 460.893 452.718L462.04 453.313L462.035 453.321Z" fill="#FF6469"/>
<path d="M454.423 464.094L431.482 508.222L411.568 490.431C410.019 489.046 408.975 487.185 408.601 485.143C408.227 483.1 408.543 480.991 409.501 479.147L418.028 462.757C418.989 460.906 420.542 459.43 422.44 458.561C424.337 457.693 426.471 457.482 428.501 457.963L454.423 464.094Z" fill="#53678B"/>
<path d="M432.488 506.674C422.762 501.631 419.486 488.688 425.17 477.755C430.855 466.822 443.34 462.084 453.057 467.108" fill="#658BC8"/>
<path d="M456.01 465.025L433.152 508.987L428.751 506.701L431.851 504.323L450.63 468.214L451.608 462.739L456.01 465.025Z" fill="#FF656A"/>
<path opacity="0.05" d="M456.01 465.025L433.152 508.987L428.751 506.701L431.851 504.323L450.63 468.214L451.608 462.739L456.01 465.025Z" fill="black"/>
<path d="M444.521 487.039L441.476 492.896L447.339 495.939L450.385 490.082L444.521 487.039Z" fill="#53678B"/>
<path d="M450.343 493.766C452.025 490.531 452.732 487.568 451.923 487.148C451.113 486.727 449.093 489.009 447.411 492.244C445.729 495.479 445.022 498.442 445.831 498.862C446.641 499.282 448.661 497 450.343 493.766Z" fill="#53678B"/>
<path opacity="0.05" d="M464.961 523.636C466.241 524.506 467.685 525.105 469.206 525.396C470.726 525.686 472.29 525.663 473.801 525.326C475.312 524.989 476.738 524.346 477.99 523.437C479.242 522.528 480.295 521.372 481.082 520.04" fill="black"/>
<path opacity="0.05" d="M485.54 484.088C486.985 484.635 488.303 485.472 489.413 486.547C490.523 487.622 491.4 488.913 491.992 490.34C492.583 491.766 492.876 493.299 492.852 494.843C492.827 496.387 492.487 497.91 491.852 499.317" fill="black"/>
<path opacity="0.05" d="M414.235 484.282C414.235 484.282 412.934 472.446 424.903 463.771L414.235 484.282Z" fill="black"/>
<path opacity="0.05" d="M419.772 487.158C419.772 487.158 418.471 475.322 430.44 466.647L419.772 487.158Z" fill="black"/>
<path d="M435.551 493.538C436.812 491.111 435.866 488.123 433.437 486.863C431.009 485.602 428.017 486.548 426.756 488.974C425.494 491.4 426.44 494.388 428.869 495.649C431.297 496.909 434.289 495.964 435.551 493.538Z" fill="#4A77BE"/>
<path d="M441 475.901C441.842 474.283 441.211 472.291 439.592 471.451C437.973 470.61 435.978 471.241 435.137 472.858C434.296 474.475 434.927 476.468 436.546 477.308C438.165 478.148 440.159 477.518 441 475.901Z" fill="#4A77BE"/>
<path d="M448.782 486.665L448.588 485.717C448.483 485.199 448.587 484.661 448.879 484.22C449.17 483.78 449.625 483.473 450.143 483.367L460.769 481.201C461.299 481.093 461.85 481.199 462.302 481.497C462.753 481.795 463.067 482.26 463.176 482.79L463.761 485.654L451.1 488.235C450.585 488.33 450.052 488.219 449.619 487.925C449.185 487.631 448.884 487.179 448.782 486.665Z" fill="#CDEFFF"/>
<path opacity="0.05" d="M455.021 488.381L454.038 483.53L459.835 482.357C460.871 482.147 461.949 482.357 462.83 482.941C463.711 483.524 464.324 484.434 464.534 485.469L464.726 486.418L455.021 488.381Z" fill="black"/>
<path d="M446.112 509.09L450.107 501.408L459.213 506.133L455.219 513.815C454.716 514.781 453.851 515.507 452.813 515.835C451.774 516.163 450.648 516.066 449.681 515.564L447.904 514.642C447.42 514.398 446.988 514.059 446.635 513.647C446.282 513.234 446.015 512.756 445.848 512.24C445.681 511.723 445.619 511.179 445.664 510.638C445.71 510.098 445.862 509.571 446.112 509.09Z" fill="#CDEFFF"/>
<path d="M455.429 512.914L453.777 516.445C451.987 519.413 447.65 520.225 443.912 518.289L439.575 516.039L441.928 511.504L455.429 512.914Z" fill="#CDEFFF"/>
<path d="M431.467 509.571L431.926 508.688C432.178 508.204 432.612 507.84 433.132 507.675C433.652 507.511 434.217 507.56 434.701 507.811L441.948 511.572L439.592 516.104L432.345 512.343C431.86 512.092 431.496 511.659 431.331 511.139C431.166 510.619 431.215 510.055 431.467 509.571Z" fill="#CDEFFF"/>
<path opacity="0.05" d="M453.943 506.213C455.446 506.994 457.167 507.253 458.834 506.95L459.074 506.48L450.215 501.871C450.847 503.746 452.184 505.303 453.943 506.213Z" fill="black"/>
<path d="M467.959 488.994L463.969 496.668L454.895 491.959L458.89 484.278C459.138 483.8 459.479 483.375 459.892 483.029C460.304 482.682 460.781 482.42 461.296 482.258C461.81 482.095 462.351 482.036 462.888 482.082C463.425 482.128 463.948 482.28 464.427 482.529L466.204 483.451C466.682 483.699 467.107 484.039 467.454 484.451C467.801 484.864 468.064 485.34 468.226 485.854C468.389 486.368 468.449 486.908 468.402 487.445C468.356 487.982 468.204 488.504 467.955 488.982L467.959 488.994Z" fill="#CDEFFF"/>
<path opacity="0.05" d="M461.141 492.385C462.649 493.164 463.853 494.422 464.565 495.962L464.325 496.432L455.466 491.823C457.359 491.271 459.393 491.473 461.141 492.385Z" fill="black"/>
<path d="M464.369 502.597C466.322 498.842 464.857 494.218 461.099 492.267C457.341 490.317 452.711 491.78 450.759 495.534C448.807 499.289 450.271 503.913 454.029 505.864C457.788 507.814 462.417 506.351 464.369 502.597Z" fill="#CDEFFF"/>
<path d="M463.987 502.711C465.94 498.957 464.476 494.332 460.717 492.382C456.959 490.431 452.33 491.894 450.377 495.648C448.425 499.403 449.889 504.028 453.647 505.978C457.406 507.928 462.035 506.466 463.987 502.711Z" fill="#CDEFFF"/>
<path d="M450.326 495.575C449.705 496.767 449.409 498.103 449.469 499.446C449.529 500.789 449.942 502.093 450.667 503.226C452.01 503.164 453.312 502.751 454.445 502.028C455.577 501.305 456.499 500.297 457.119 499.105C457.738 497.914 458.034 496.581 457.975 495.24C457.917 493.898 457.506 492.596 456.785 491.463C455.442 491.522 454.138 491.933 453.004 492.654C451.87 493.376 450.946 494.383 450.326 495.575Z" fill="#658BC8"/>
<defs>
<linearGradient id="paint0_linear" x1="353.34" y1="638.46" x2="353.34" y2="41.7134" gradientUnits="userSpaceOnUse">
<stop stop-color="#808080" stop-opacity="0.25"/>
<stop offset="0.54" stop-color="#808080" stop-opacity="0.12"/>
<stop offset="1" stop-color="#808080" stop-opacity="0.1"/>
</linearGradient>
<linearGradient id="paint1_linear" x1="384204" y1="78108.2" x2="384204" y2="55554.7" gradientUnits="userSpaceOnUse">
<stop stop-color="#808080" stop-opacity="0.25"/>
<stop offset="0.54" stop-color="#808080" stop-opacity="0.12"/>
<stop offset="1" stop-color="#808080" stop-opacity="0.1"/>
</linearGradient>
<linearGradient id="paint2_linear" x1="145544" y1="163043" x2="145544" y2="79345.1" gradientUnits="userSpaceOnUse">
<stop stop-color="#808080" stop-opacity="0.25"/>
<stop offset="0.54" stop-color="#808080" stop-opacity="0.12"/>
<stop offset="1" stop-color="#808080" stop-opacity="0.1"/>
</linearGradient>
<linearGradient id="paint3_linear" x1="121425" y1="45670" x2="121425" y2="40535" gradientUnits="userSpaceOnUse">
<stop stop-color="#808080" stop-opacity="0.25"/>
<stop offset="0.54" stop-color="#808080" stop-opacity="0.12"/>
<stop offset="1" stop-color="#808080" stop-opacity="0.1"/>
</linearGradient>
<linearGradient id="paint4_linear" x1="94123.1" y1="-43461.6" x2="83931.8" y2="-48761.1" gradientUnits="userSpaceOnUse">
<stop stop-color="#808080" stop-opacity="0.25"/>
<stop offset="0.54" stop-color="#808080" stop-opacity="0.12"/>
<stop offset="1" stop-color="#808080" stop-opacity="0.1"/>
</linearGradient>
</defs>
</svg>
