<svg width="66" height="66" viewBox="0 0 66 66" fill="none" xmlns="http://www.w3.org/2000/svg">
<circle cx="33" cy="33" r="33" fill="#1657E7"/>
<path d="M30.09 30C30.3251 29.3317 30.7892 28.7681 31.4 28.4091C32.0108 28.0502 32.7289 27.9189 33.4272 28.0387C34.1255 28.1585 34.7588 28.5215 35.2151 29.0635C35.6713 29.6055 35.9211 30.2915 35.92 31C35.92 33 32.92 34 32.92 34M33 38H33.01M43 33C43 38.5228 38.5228 43 33 43C27.4772 43 23 38.5228 23 33C23 27.4772 27.4772 23 33 23C38.5228 23 43 27.4772 43 33Z" stroke="white" stroke-width="2" stroke-linecap="round" stroke-linejoin="round"/>
</svg>
